<?xml version="1.0" encoding="UTF-8"?>
<svg xmlns="http://www.w3.org/2000/svg" width="420mm" height="297mm"
     viewBox="0 0 420 297" role="img" aria-labelledby="svg-title svg-desc">
  <title id="svg-title">Salamandra right half-wing structural layout</title>
  <desc id="svg-desc">Metric A3 plan-view draft of the right half-wing showing the common center module, three printed segments, structural cell boundaries, removable joiner, spar, anti-rotation pin, elevon and a vertically exaggerated polyhedral inset.</desc>
  <metadata>Generated by calculations/generate_blueprints.py; drawing SLM-WNG-001; units mm.</metadata>
  
        <defs>
          <pattern id="grid" width="10" height="10" patternUnits="userSpaceOnUse">
            <path d="M10 0H0V10" fill="none" stroke="#2e4757" stroke-opacity=".07" stroke-width=".16"/>
          </pattern>
          <marker id="arrow-end" markerWidth="3" markerHeight="3" refX="2.6" refY="1.5" orient="auto" markerUnits="userSpaceOnUse">
            <path d="M0 0L3 1.5L0 3Z" fill="#314451"/>
          </marker>
          <marker id="arrow-start" markerWidth="3" markerHeight="3" refX=".4" refY="1.5" orient="auto-start-reverse" markerUnits="userSpaceOnUse">
            <path d="M0 0L3 1.5L0 3Z" fill="#314451"/>
          </marker>
          <style>
          :root { color-scheme: light; }
          * { vector-effect: non-scaling-stroke; }
          .sheet { fill: #fffdf8; }
          .grid { fill: url(#grid); }
          .frame, .title-line { fill: none; stroke: #17202a; stroke-width: .5; }
          .outline { fill: none; stroke: #111820; stroke-width: .7; stroke-linejoin: round; }
          .medium { fill: none; stroke: #263746; stroke-width: .42; }
          .thin { fill: none; stroke: #455563; stroke-width: .25; }
          .hidden { fill: none; stroke: #667784; stroke-width: .25; stroke-dasharray: 2.4 1.4; }
          .centre { fill: none; stroke: #5a6c79; stroke-width: .2; stroke-dasharray: 7 1.4 1.2 1.4; }
          .station { fill: none; stroke: #6c7c87; stroke-width: .22; stroke-dasharray: 4 1.5; }
          .controlled-fill { fill: #eaf0f3; stroke: none; }
          .core-fill { fill: #d9e2e7; stroke: none; }
          .segment-fill-a { fill: #eef3f5; stroke: none; }
          .segment-fill-b { fill: #f7f9fa; stroke: none; }
          .elevon-fill { fill: #dcecf4; stroke: #24698f; stroke-width: .35; }
          .derived { fill: none; stroke: #146e9b; stroke-width: .45; }
          .derived-fill { fill: #146e9b; stroke: none; }
          .provisional-line { fill: none; stroke: #a86000; stroke-width: .48; stroke-dasharray: 3 1.5; }
          .provisional-fill { fill: #f4c46a; fill-opacity: .18; stroke: #a86000; stroke-width: .48; stroke-dasharray: 3 1.5; }
          .provisional-dot { fill: #b76e00; stroke: none; }
          .datum-dot { fill: #17202a; stroke: none; }
          .dimension, .extension, .leader { fill: none; stroke: #314451; stroke-width: .22; }
          .extension { stroke: #71808a; }
          .leader { stroke-width: .25; }
          text { font-family: Arial, Helvetica, sans-serif; fill: #17202a; }
          .sheet-title { font-size: 5.2px; font-weight: 700; letter-spacing: .35px; }
          .block-title { font-size: 3.8px; font-weight: 700; letter-spacing: .16px; }
          .sheet-subtitle { font-size: 3.2px; font-weight: 600; letter-spacing: .18px; }
          .label { font-size: 3.1px; font-weight: 600; }
          .note { font-size: 2.75px; }
          .micro { font-size: 2.35px; letter-spacing: .05px; }
          .dimension-text { font: 600 2.8px 'Courier New', Consolas, monospace; }
          .mono { font: 2.7px 'Courier New', Consolas, monospace; }
          .provisional-text { font-size: 2.65px; font-weight: 600; fill: #985b00; }
          .status { font-size: 3.1px; font-weight: 700; fill: #985b00; letter-spacing: .25px; }
          .watermark { font-size: 8px; font-weight: 700; fill: #b76e00; fill-opacity: .08; letter-spacing: .8px; }
        </style>
        </defs>
        
  <rect width="420" height="297" class="sheet"/>
  <rect x="10" y="10" width="400" height="277" class="grid"/>
  <rect x="10" y="10" width="400" height="277" class="frame"/>
<line x1="10" y1="257" x2="410" y2="257" class="title-line"/>
<line x1="258" y1="257" x2="258" y2="287" class="title-line"/>
<line x1="348" y1="257" x2="348" y2="287" class="title-line"/>
<line x1="258" y1="274" x2="410" y2="274" class="title-line"/>
<line x1="379" y1="274" x2="379" y2="287" class="title-line"/>
<text x="16" y="266" class="sheet-subtitle" text-anchor="start">SALAMANDRA · OPEN 3D-PRINTED AIRCRAFT</text>
<text x="16" y="272" class="note" text-anchor="start">METRIC TECHNICAL SKETCH · PRINT AT 100 %</text>
<text x="16" y="280" class="micro" text-anchor="start">SOURCE: DESIGN GUIDE v0.21 §§4–6 · ADR-0002/0015/0032/0039</text>
<text x="263" y="264" class="block-title" text-anchor="start" style="font-size:3.65px">RIGHT HALF-WING · STRUCTURAL LAYOUT</text>
<text x="263" y="270" class="status" text-anchor="start">DRAFT · NOT FOR MANUFACTURE</text>
<text x="352" y="263" class="micro" text-anchor="start">DRAWING</text>
<text x="352" y="270" class="mono" text-anchor="start">SLM-WNG-001</text>
<text x="263" y="280" class="micro" text-anchor="start">SCALE</text>
<text x="263" y="285" class="mono" text-anchor="start">PLAN 1:2</text>
<text x="352" y="280" class="micro" text-anchor="start">SHEET</text>
<text x="352" y="285" class="mono" text-anchor="start">A3 · 420 × 297</text>
<text x="383" y="280" class="micro" text-anchor="start">REV</text>
<text x="383" y="285" class="mono" text-anchor="start">P0</text>
<text x="210" y="146" class="watermark" text-anchor="middle">DRAFT · NOT A CUTTING OR MANUFACTURING TEMPLATE</text>
<polygon points="146.858,59 146.447,59.014 145.207,59.028 143.15,58.979 140.332,58.822 136.809,58.533 132.655,58.088 127.965,57.483 122.831,56.739 117.34,55.885 111.632,54.95 105.699,53.919 99.645,52.922 93.518,52.007 87.366,51.205 81.233,50.534 75.172,50.004 69.239,49.619 63.494,49.391 57.992,49.328 52.785,49.439 47.913,49.727 43.416,50.193 39.327,50.827 35.677,51.615 32.494,52.542 29.799,53.588 27.597,54.728 25.897,55.913 24.704,57.089 24.034,58.18 24,59 24.696,59.876 26.074,60.714 28.069,61.526 30.649,62.273 33.786,62.925 37.458,63.457 41.641,63.859 46.306,64.124 51.417,64.26 56.929,64.279 62.786,64.195 68.925,64.02 75.28,63.77 81.783,63.463 88.354,63.117 94.916,62.743 101.387,62.356 107.689,61.97 113.789,61.575 119.515,61.135 124.849,60.729 129.725,60.365 134.083,60.046 137.867,59.771 141.029,59.538 143.529,59.343 145.344,59.173 146.467,59.047 146.858,59" class="controlled-fill"/>
<polygon points="146.858,59 146.447,59.014 145.207,59.028 143.15,58.979 140.332,58.822 136.809,58.533 132.655,58.088 127.965,57.483 122.831,56.739 117.34,55.885 111.632,54.95 105.699,53.919 99.645,52.922 93.518,52.007 87.366,51.205 81.233,50.534 75.172,50.004 69.239,49.619 63.494,49.391 57.992,49.328 52.785,49.439 47.913,49.727 43.416,50.193 39.327,50.827 35.677,51.615 32.494,52.542 29.799,53.588 27.597,54.728 25.897,55.913 24.704,57.089 24.034,58.18 24,59 24.696,59.876 26.074,60.714 28.069,61.526 30.649,62.273 33.786,62.925 37.458,63.457 41.641,63.859 46.306,64.124 51.417,64.26 56.929,64.279 62.786,64.195 68.925,64.02 75.28,63.77 81.783,63.463 88.354,63.117 94.916,62.743 101.387,62.356 107.689,61.97 113.789,61.575 119.515,61.135 124.849,60.729 129.725,60.365 134.083,60.046 137.867,59.771 141.029,59.538 143.529,59.343 145.344,59.173 146.467,59.047 146.858,59" class="outline"/>
<line x1="24" y1="59" x2="146.923" y2="59" class="centre"/>
<line x1="60.877" y1="64.222" x2="60.877" y2="49.361" class="provisional-line"/>
<line x1="112.505" y1="61.658" x2="112.505" y2="55.093" class="derived"/>
<circle cx="54.731" cy="59" r="3" class="provisional-line"/>
<text x="24" y="31" class="sheet-subtitle" text-anchor="start">SECTION A–A · y = 195 mm · LOCAL 1:2</text>
<text x="24" y="35.5" class="micro" text-anchor="start">SALAMANDRA r1 y195 [D] · TWIST +0.9° NOT SHOWN</text>
<text x="42.438" y="76" class="micro" text-anchor="middle">D-BOX</text>
<text x="85.462" y="76" class="micro" text-anchor="middle">CENTER CELL</text>
<text x="129.714" y="76" class="micro" text-anchor="middle">ELEVON</text>
<polygon points="47,89.846 144.5,69.144 144.5,192.067 47,234.462" class="core-fill"/>
<polygon points="144.5,69.144 220.5,53.007 220.5,159.021 144.5,192.067" class="segment-fill-a"/>
<polygon points="220.5,53.007 296,36.977 296,126.193 220.5,159.021" class="segment-fill-b"/>
<polygon points="296,36.977 372,20.84 372,93.147 296,126.193" class="segment-fill-a"/>
<polygon points="144.5,157.649 339.5,85.008 339.5,107.279 144.5,192.067" class="elevon-fill"/>
<polygon points="47,89.846 372,20.84 372,93.147 47,234.462" class="outline"/>
<line x1="47" y1="133.231" x2="372" y2="42.532" class="hidden"/>
<line x1="144.5" y1="157.649" x2="339.5" y2="85.008" class="derived"/>
<line x1="144.5" y1="69.144" x2="144.5" y2="192.067" class="station"/>
<line x1="220.5" y1="53.007" x2="220.5" y2="159.021" class="station"/>
<line x1="296" y1="36.977" x2="296" y2="126.193" class="station"/>
<line x1="109.5" y1="109.253" x2="144.5" y2="99.875" class="provisional-line"/>
<line x1="144.5" y1="99.875" x2="339.5" y2="47.625" class="provisional-line" stroke-dasharray="none"/>
<line x1="109.5" y1="141.753" x2="179.5" y2="122.997" class="provisional-line"/>
<circle cx="220.5" cy="95.413" r="1" class="provisional-line"/>
<circle cx="220.5" cy="116.616" r="1" class="provisional-line"/>
<circle cx="296" cy="72.663" r="1" class="provisional-line"/>
<circle cx="296" cy="90.506" r="1" class="provisional-line"/>
<rect x="160.5" y="119.189" width="8" height="17" rx="1" class="provisional-fill"/>
<text x="164.5" y="128.689" class="provisional-text" text-anchor="middle">S</text>
<rect x="238" y="93.595" width="8" height="17" rx="1" class="provisional-fill"/>
<text x="242" y="103.095" class="provisional-text" text-anchor="middle">S</text>
<line x1="47" y1="89.846" x2="47" y2="14.5" class="extension"/>
<line x1="372" y1="20.84" x2="372" y2="14.5" class="extension"/>
<line x1="47" y1="14.5" x2="372" y2="14.5" class="dimension" marker-start="url(#arrow-start)" marker-end="url(#arrow-end)"/>
<text x="209.5" y="12.8" class="dimension-text" text-anchor="middle">HALF-SPAN 650 mm [D]</text>
<line x1="47" y1="89.846" x2="29" y2="89.846" class="extension"/>
<line x1="47" y1="234.462" x2="29" y2="234.462" class="extension"/>
<line x1="29" y1="89.846" x2="29" y2="234.462" class="dimension" marker-start="url(#arrow-start)" marker-end="url(#arrow-end)"/>
<text x="27" y="162.154" class="dimension-text" text-anchor="middle" transform="rotate(-90 27 162.154)">289.2</text>
<line x1="372" y1="20.84" x2="388" y2="20.84" class="extension"/>
<line x1="372" y1="93.147" x2="388" y2="93.147" class="extension"/>
<line x1="388" y1="20.84" x2="388" y2="93.147" class="dimension" marker-start="url(#arrow-start)" marker-end="url(#arrow-end)"/>
<text x="390" y="56.993" class="dimension-text" text-anchor="middle" transform="rotate(-90 390 56.993)">144.6</text>
<line x1="47" y1="234.462" x2="47" y2="247" class="extension"/>
<line x1="144.5" y1="192.067" x2="144.5" y2="247" class="extension"/>
<line x1="47" y1="247" x2="144.5" y2="247" class="dimension" marker-start="url(#arrow-start)" marker-end="url(#arrow-end)"/>
<text x="95.75" y="245.3" class="dimension-text" text-anchor="middle">195</text>
<line x1="144.5" y1="192.067" x2="144.5" y2="247" class="extension"/>
<line x1="220.5" y1="159.021" x2="220.5" y2="247" class="extension"/>
<line x1="144.5" y1="247" x2="220.5" y2="247" class="dimension" marker-start="url(#arrow-start)" marker-end="url(#arrow-end)"/>
<text x="182.5" y="245.3" class="dimension-text" text-anchor="middle">152</text>
<line x1="220.5" y1="159.021" x2="220.5" y2="247" class="extension"/>
<line x1="296" y1="126.193" x2="296" y2="247" class="extension"/>
<line x1="220.5" y1="247" x2="296" y2="247" class="dimension" marker-start="url(#arrow-start)" marker-end="url(#arrow-end)"/>
<text x="258.25" y="245.3" class="dimension-text" text-anchor="middle">151</text>
<line x1="296" y1="126.193" x2="296" y2="247" class="extension"/>
<line x1="372" y1="93.147" x2="372" y2="247" class="extension"/>
<line x1="296" y1="247" x2="372" y2="247" class="dimension" marker-start="url(#arrow-start)" marker-end="url(#arrow-end)"/>
<text x="334" y="245.3" class="dimension-text" text-anchor="middle">152</text>
<line x1="277" y1="69.044" x2="279" y2="177" class="leader provisional-line"/>
<circle cx="277" cy="69.044" r="0.65" class="provisional-dot"/>
<text x="280.5" y="176.2" class="provisional-text" text-anchor="start">D-BOX WEB · 0.30 c · PROVISIONAL</text>
<line x1="297" y1="100.84" x2="314" y2="152" class="leader"/>
<circle cx="297" cy="100.84" r="0.65" class="datum-dot"/>
<text x="315.5" y="151.2" class="note" text-anchor="start">HINGE · 0.72 c</text>
<line x1="307" y1="56.333" x2="293" y2="119" class="leader provisional-line"/>
<circle cx="307" cy="56.333" r="0.65" class="provisional-dot"/>
<text x="294.5" y="118.2" class="provisional-text" text-anchor="start">CFRP Ø12×1 · c/4 · PROVISIONAL</text>
<line x1="147" y1="131.705" x2="131" y2="211" class="leader provisional-line"/>
<circle cx="147" cy="131.705" r="0.65" class="provisional-dot"/>
<text x="132.5" y="210.2" class="provisional-text" text-anchor="start">PIN Ø6 · 65 mm AFT · PROVISIONAL</text>
<text x="72" y="219" class="label" text-anchor="middle">CORE</text>
<text x="181" y="196" class="note" text-anchor="middle">SEGMENT 1</text>
<text x="257" y="163" class="note" text-anchor="middle">SEGMENT 2</text>
<text x="333" y="128" class="note" text-anchor="middle">SEGMENT 3</text>
<text x="212" y="112" class="micro" text-anchor="middle" transform="rotate(-90 212 112)">REMOVABLE</text>
<text x="286" y="114" class="micro" text-anchor="middle" transform="rotate(-90 286 114)">GLUED</text>
<text x="362" y="103" class="micro" text-anchor="middle" transform="rotate(-90 362 103)">GLUED</text>
<line x1="206" y1="242" x2="374" y2="242" class="centre"/>
<polyline points="206,242 254.75,242 292.75,236.322 330.5,228.256 368.5,217.64" class="provisional-line"/>
<circle cx="206" cy="242" r="0.8" class="provisional-dot"/>
<circle cx="254.75" cy="242" r="0.8" class="provisional-dot"/>
<circle cx="292.75" cy="236.322" r="0.8" class="provisional-dot"/>
<circle cx="330.5" cy="228.256" r="0.8" class="provisional-dot"/>
<circle cx="368.5" cy="217.64" r="0.8" class="provisional-dot"/>
<text x="206" y="214.5" class="sheet-subtitle" text-anchor="start">FRONT ELEVATION INSET · H 1:4 · Z ×8</text>
<text x="206" y="219" class="micro" text-anchor="start">POLYHEDRAL 0 / 1.07 / 1.53 / 2.00° · TIP RISE 12.2 mm [E]</text>
<line x1="303" y1="24" x2="313" y2="24" class="outline"/>
<text x="316" y="25" class="micro" text-anchor="start">CONTROLLED / DERIVED</text>
<line x1="303" y1="29" x2="313" y2="29" class="provisional-line"/>
<text x="316" y="30" class="micro" text-anchor="start">PROVISIONAL · CAD GATE F2</text>
<text x="14" y="243" class="micro" text-anchor="start">SPAN CHAIN [mm] · CORE / P1 / P2 / P3</text>
</svg>
